<svg xmlns="http://www.w3.org/2000/svg" xmlns:xlink="http://www.w3.org/1999/xlink" width="500" zoomAndPan="magnify" viewBox="0 0 375 374.999991" height="500" preserveAspectRatio="xMidYMid meet" version="1.0"><defs><g/><clipPath id="2834c66b34"><path d="M 0.238281 10 L 5 10 L 5 16 L 0.238281 16 Z M 0.238281 10 " clip-rule="nonzero"/></clipPath><clipPath id="8f22b9b4fa"><rect x="0" width="158" y="0" height="18"/></clipPath><clipPath id="048d45063e"><path d="M 33.507812 200.605469 L 350.742188 200.605469 L 350.742188 237.679688 L 33.507812 237.679688 Z M 33.507812 200.605469 " clip-rule="nonzero"/></clipPath><clipPath id="c29e5f43e0"><path d="M 0.507812 0.605469 L 317.742188 0.605469 L 317.742188 37.679688 L 0.507812 37.679688 Z M 0.507812 0.605469 " clip-rule="nonzero"/></clipPath><clipPath id="c9c08fbfeb"><rect x="0" width="318" y="0" height="38"/></clipPath></defs><g fill="#3b3937" fill-opacity="1"><g transform="translate(176.410085, 273.355588)"><g><path d="M 6.359375 0 L 6.359375 -1.8125 L 10.1875 -1.8125 C 14.425781 -1.8125 17.726562 -2.78125 20.09375 -4.71875 C 22.457031 -6.664062 23.640625 -9.941406 23.640625 -14.546875 L 23.640625 -115.984375 C 23.640625 -120.222656 22.457031 -123.28125 20.09375 -125.15625 C 17.726562 -127.039062 14.425781 -127.984375 10.1875 -127.984375 L 6.359375 -127.984375 L 6.359375 -129.796875 L 63.265625 -129.796875 C 82.410156 -129.796875 97.316406 -124.25 107.984375 -113.15625 C 118.648438 -102.070312 123.984375 -86.226562 123.984375 -65.625 C 123.984375 -52.414062 121.707031 -40.875 117.15625 -31 C 112.613281 -21.125 105.828125 -13.488281 96.796875 -8.09375 C 87.773438 -2.695312 76.597656 0 63.265625 0 Z M 44.71875 -1.8125 L 59.078125 -1.8125 C 73.742188 -1.8125 84.378906 -6.8125 90.984375 -16.8125 C 97.585938 -26.8125 100.890625 -43.082031 100.890625 -65.625 C 100.890625 -87.5625 97.617188 -103.4375 91.078125 -113.25 C 84.535156 -123.070312 73.929688 -127.984375 59.265625 -127.984375 L 44.71875 -127.984375 Z M 44.71875 -1.8125 "/></g></g></g><g fill="#3b3937" fill-opacity="1"><g transform="translate(97.504927, 216.929235)"><g><path d="M 46.71875 1.8125 C 33.875 1.8125 24.175781 -0.671875 17.625 -5.640625 C 11.082031 -10.609375 7.8125 -16.546875 7.8125 -23.453125 C 7.8125 -28.054688 9.207031 -31.507812 12 -33.8125 C 14.789062 -36.113281 18.425781 -37.265625 22.90625 -37.265625 C 23.03125 -24.054688 25.269531 -14.539062 29.625 -8.71875 C 33.988281 -2.90625 40.351562 0 48.71875 0 C 56.351562 0 62.5625 -2.179688 67.34375 -6.546875 C 72.132812 -10.910156 74.53125 -17.332031 74.53125 -25.8125 C 74.53125 -31.382812 73.4375 -35.898438 71.25 -39.359375 C 69.070312 -42.816406 65.738281 -45.90625 61.25 -48.625 C 56.769531 -51.351562 50.957031 -54.351562 43.8125 -57.625 C 37.875 -60.289062 32.359375 -63.289062 27.265625 -66.625 C 22.179688 -69.957031 18.09375 -74.046875 15 -78.890625 C 11.90625 -83.742188 10.359375 -89.867188 10.359375 -97.265625 C 10.359375 -108.296875 13.992188 -116.78125 21.265625 -122.71875 C 28.535156 -128.65625 38.414062 -131.625 50.90625 -131.625 C 61.8125 -131.625 70.503906 -129.5625 76.984375 -125.4375 C 83.472656 -121.320312 86.71875 -116.414062 86.71875 -110.71875 C 86.71875 -106.957031 85.234375 -103.957031 82.265625 -101.71875 C 79.296875 -99.476562 75.265625 -98.359375 70.171875 -98.359375 C 70.171875 -108.773438 68.5625 -116.585938 65.34375 -121.796875 C 62.132812 -127.015625 56.773438 -129.625 49.265625 -129.625 C 42.835938 -129.625 37.503906 -127.710938 33.265625 -123.890625 C 29.023438 -120.078125 26.90625 -114.050781 26.90625 -105.8125 C 26.90625 -100.226562 27.960938 -95.617188 30.078125 -91.984375 C 32.203125 -88.347656 35.535156 -85.132812 40.078125 -82.34375 C 44.628906 -79.5625 50.421875 -76.597656 57.453125 -73.453125 C 64.234375 -70.535156 70.195312 -67.472656 75.34375 -64.265625 C 80.5 -61.054688 84.53125 -57.144531 87.4375 -52.53125 C 90.351562 -47.925781 91.8125 -42.113281 91.8125 -35.09375 C 91.8125 -23.8125 87.898438 -14.835938 80.078125 -8.171875 C 72.265625 -1.515625 61.144531 1.8125 46.71875 1.8125 Z M 46.71875 1.8125 "/></g></g></g><g transform="matrix(1, 0, 0, 1, 36, 238)"><g clip-path="url(#8f22b9b4fa)"><g fill="#3b3937" fill-opacity="1"><g transform="translate(78.479409, 7.773453)"><g><path d="M 3.625 0 L 0.5625 0 L 0.5625 -5.140625 L 3.625 -5.140625 L 3.625 -4.65625 L 1.09375 -4.65625 L 1.09375 -2.828125 L 3.546875 -2.828125 L 3.546875 -2.328125 L 1.09375 -2.328125 L 1.09375 -0.484375 L 3.625 -0.484375 Z M 3.625 0 "/></g></g></g><g fill="#3b3937" fill-opacity="1"><g transform="translate(88.483169, 7.773453)"><g><path d="M 1.09375 0 L 0.5625 0 L 0.5625 -5.140625 L 1.09375 -5.140625 Z M 1.09375 0 "/></g></g></g><g fill="#3b3937" fill-opacity="1"><g transform="translate(95.959492, 7.773453)"><g><path d="M 1.09375 -3.78125 L 1.09375 0 L 0.5625 0 L 0.5625 -5.46875 L 3.453125 -1.359375 L 3.453125 -5.140625 L 3.984375 -5.140625 L 3.984375 0.3125 Z M 1.09375 -3.78125 "/></g></g></g><g fill="#3b3937" fill-opacity="1"><g transform="translate(106.326477, 7.773453)"><g><path d="M 3.625 -4.65625 L 1.09375 -4.65625 L 1.09375 -2.828125 L 3.546875 -2.828125 L 3.546875 -2.328125 L 1.09375 -2.328125 L 1.09375 0 L 0.5625 0 L 0.5625 -5.140625 L 3.625 -5.140625 Z M 3.625 -4.65625 "/></g></g></g><g fill="#3b3937" fill-opacity="1"><g transform="translate(115.914043, 7.773453)"><g><path d="M 1.40625 -1.890625 L 3.265625 -1.890625 L 2.34375 -4.25 Z M 4.59375 0 L 4.015625 0 L 3.46875 -1.40625 L 1.203125 -1.40625 L 0.65625 0 L 0.078125 0 L 2.34375 -5.5 Z M 4.59375 0 "/></g></g></g><g fill="#3b3937" fill-opacity="1"><g transform="translate(126.394539, 7.773453)"><g><path d="M 5.28125 -1.578125 C 5.09375 -1.078125 4.78125 -0.679688 4.34375 -0.390625 C 3.90625 -0.078125 3.425781 0.078125 2.90625 0.078125 C 2.195312 0.078125 1.585938 -0.179688 1.078125 -0.703125 C 0.585938 -1.222656 0.34375 -1.84375 0.34375 -2.5625 C 0.34375 -2.914062 0.40625 -3.253906 0.53125 -3.578125 C 0.664062 -3.898438 0.847656 -4.179688 1.078125 -4.421875 C 1.585938 -4.941406 2.195312 -5.203125 2.90625 -5.203125 C 3.425781 -5.203125 3.90625 -5.054688 4.34375 -4.765625 C 4.769531 -4.460938 5.082031 -4.066406 5.28125 -3.578125 L 4.703125 -3.578125 C 4.421875 -4.085938 4.003906 -4.425781 3.453125 -4.59375 C 3.273438 -4.644531 3.066406 -4.671875 2.828125 -4.671875 C 2.585938 -4.671875 2.347656 -4.613281 2.109375 -4.5 C 1.859375 -4.382812 1.640625 -4.226562 1.453125 -4.03125 C 1.066406 -3.625 0.875 -3.132812 0.875 -2.5625 C 0.875 -1.988281 1.066406 -1.5 1.453125 -1.09375 C 1.859375 -0.675781 2.34375 -0.46875 2.90625 -0.46875 C 3.289062 -0.46875 3.644531 -0.566406 3.96875 -0.765625 C 4.28125 -0.972656 4.523438 -1.242188 4.703125 -1.578125 Z M 5.28125 -1.578125 "/></g></g></g><g fill="#3b3937" fill-opacity="1"><g transform="translate(137.72256, 7.773453)"><g><path d="M 1.09375 0 L 0.5625 0 L 0.5625 -5.140625 L 1.09375 -5.140625 L 1.09375 -2.828125 L 3.4375 -2.828125 L 3.4375 -5.140625 L 3.96875 -5.140625 L 3.96875 0 L 3.4375 0 L 3.4375 -2.296875 L 1.09375 -2.296875 Z M 1.09375 0 "/></g></g></g><g fill="#3b3937" fill-opacity="1"><g transform="translate(148.071359, 7.773453)"><g/></g></g><g clip-path="url(#2834c66b34)"><g fill="#3b3937" fill-opacity="1"><g transform="translate(0.413853, 15.34058)"><g><path d="M 3.921875 -1.4375 C 3.921875 -1.226562 3.875 -1.023438 3.78125 -0.828125 C 3.6875 -0.640625 3.554688 -0.484375 3.390625 -0.359375 C 3.078125 -0.117188 2.660156 0 2.140625 0 L 0.5625 0 L 0.5625 -5.140625 L 1.953125 -5.140625 C 2.703125 -5.140625 3.191406 -4.910156 3.421875 -4.453125 C 3.503906 -4.285156 3.546875 -4.113281 3.546875 -3.9375 C 3.546875 -3.769531 3.535156 -3.640625 3.515625 -3.546875 C 3.484375 -3.441406 3.441406 -3.34375 3.390625 -3.25 C 3.273438 -3.050781 3.125 -2.910156 2.9375 -2.828125 C 3.238281 -2.753906 3.476562 -2.597656 3.65625 -2.359375 C 3.832031 -2.109375 3.921875 -1.800781 3.921875 -1.4375 Z M 3.015625 -3.859375 C 3.015625 -4.378906 2.660156 -4.640625 1.953125 -4.640625 L 1.09375 -4.640625 L 1.09375 -3.03125 L 2.109375 -3.03125 C 2.378906 -3.03125 2.597656 -3.097656 2.765625 -3.234375 C 2.929688 -3.367188 3.015625 -3.578125 3.015625 -3.859375 Z M 3.390625 -1.53125 C 3.390625 -1.6875 3.363281 -1.820312 3.3125 -1.9375 C 3.25 -2.050781 3.171875 -2.148438 3.078125 -2.234375 C 2.878906 -2.410156 2.644531 -2.5 2.375 -2.5 L 1.09375 -2.5 L 1.09375 -0.5 L 2.296875 -0.5 C 2.617188 -0.5 2.878906 -0.59375 3.078125 -0.78125 C 3.285156 -0.976562 3.390625 -1.226562 3.390625 -1.53125 Z M 3.390625 -1.53125 "/></g></g></g></g><g fill="#3b3937" fill-opacity="1"><g transform="translate(10.304111, 15.34058)"><g><path d="M 3.625 0 L 0.5625 0 L 0.5625 -5.140625 L 3.625 -5.140625 L 3.625 -4.65625 L 1.09375 -4.65625 L 1.09375 -2.828125 L 3.546875 -2.828125 L 3.546875 -2.328125 L 1.09375 -2.328125 L 1.09375 -0.484375 L 3.625 -0.484375 Z M 3.625 0 "/></g></g></g><g fill="#3b3937" fill-opacity="1"><g transform="translate(20.307871, 15.34058)"><g><path d="M 4.65625 0.421875 L 2.96875 -4.0625 L 1.28125 0.421875 L 0.078125 -5.140625 L 0.625 -5.140625 L 1.421875 -1.40625 L 2.96875 -5.4375 L 4.5 -1.40625 L 5.3125 -5.140625 L 5.84375 -5.140625 Z M 4.65625 0.421875 "/></g></g></g><g fill="#3b3937" fill-opacity="1"><g transform="translate(32.044524, 15.34058)"><g><path d="M 4.28125 -1.703125 C 4.28125 -1.148438 4.101562 -0.710938 3.75 -0.390625 C 3.40625 -0.0859375 2.945312 0.0625 2.375 0.0625 C 1.800781 0.0625 1.34375 -0.0859375 1 -0.390625 C 0.632812 -0.710938 0.453125 -1.148438 0.453125 -1.703125 L 0.453125 -5.140625 L 0.984375 -5.140625 L 0.984375 -1.625 C 0.984375 -1.238281 1.125 -0.941406 1.40625 -0.734375 C 1.644531 -0.554688 1.96875 -0.46875 2.375 -0.46875 C 3 -0.46875 3.421875 -0.675781 3.640625 -1.09375 C 3.722656 -1.238281 3.765625 -1.414062 3.765625 -1.625 L 3.765625 -5.140625 L 4.28125 -5.140625 Z M 4.28125 -1.703125 "/></g></g></g><g fill="#3b3937" fill-opacity="1"><g transform="translate(42.600688, 15.34058)"><g><path d="M 2 -2.421875 C 0.945312 -2.671875 0.421875 -3.125 0.421875 -3.78125 C 0.421875 -4.257812 0.59375 -4.617188 0.9375 -4.859375 C 1.269531 -5.097656 1.664062 -5.21875 2.125 -5.21875 C 3.125 -5.21875 3.71875 -4.84375 3.90625 -4.09375 L 3.328125 -4.09375 C 3.222656 -4.539062 2.820312 -4.765625 2.125 -4.765625 C 1.625 -4.765625 1.273438 -4.617188 1.078125 -4.328125 C 1.003906 -4.210938 0.96875 -4.070312 0.96875 -3.90625 C 0.96875 -3.59375 1.140625 -3.347656 1.484375 -3.171875 C 1.640625 -3.085938 1.984375 -2.976562 2.515625 -2.84375 C 3.035156 -2.707031 3.414062 -2.554688 3.65625 -2.390625 C 3.976562 -2.160156 4.140625 -1.835938 4.140625 -1.421875 C 4.140625 -0.898438 3.9375 -0.503906 3.53125 -0.234375 C 3.1875 -0.015625 2.765625 0.09375 2.265625 0.09375 C 1.117188 0.09375 0.457031 -0.335938 0.28125 -1.203125 L 0.90625 -1.203125 C 1 -0.660156 1.453125 -0.390625 2.265625 -0.390625 C 2.835938 -0.390625 3.238281 -0.546875 3.46875 -0.859375 C 3.550781 -0.984375 3.59375 -1.15625 3.59375 -1.375 C 3.59375 -1.582031 3.507812 -1.753906 3.34375 -1.890625 C 3.113281 -2.085938 2.664062 -2.265625 2 -2.421875 Z M 2 -2.421875 "/></g></g></g><g fill="#3b3937" fill-opacity="1"><g transform="translate(52.755794, 15.34058)"><g><path d="M 2 -2.421875 C 0.945312 -2.671875 0.421875 -3.125 0.421875 -3.78125 C 0.421875 -4.257812 0.59375 -4.617188 0.9375 -4.859375 C 1.269531 -5.097656 1.664062 -5.21875 2.125 -5.21875 C 3.125 -5.21875 3.71875 -4.84375 3.90625 -4.09375 L 3.328125 -4.09375 C 3.222656 -4.539062 2.820312 -4.765625 2.125 -4.765625 C 1.625 -4.765625 1.273438 -4.617188 1.078125 -4.328125 C 1.003906 -4.210938 0.96875 -4.070312 0.96875 -3.90625 C 0.96875 -3.59375 1.140625 -3.347656 1.484375 -3.171875 C 1.640625 -3.085938 1.984375 -2.976562 2.515625 -2.84375 C 3.035156 -2.707031 3.414062 -2.554688 3.65625 -2.390625 C 3.976562 -2.160156 4.140625 -1.835938 4.140625 -1.421875 C 4.140625 -0.898438 3.9375 -0.503906 3.53125 -0.234375 C 3.1875 -0.015625 2.765625 0.09375 2.265625 0.09375 C 1.117188 0.09375 0.457031 -0.335938 0.28125 -1.203125 L 0.90625 -1.203125 C 1 -0.660156 1.453125 -0.390625 2.265625 -0.390625 C 2.835938 -0.390625 3.238281 -0.546875 3.46875 -0.859375 C 3.550781 -0.984375 3.59375 -1.15625 3.59375 -1.375 C 3.59375 -1.582031 3.507812 -1.753906 3.34375 -1.890625 C 3.113281 -2.085938 2.664062 -2.265625 2 -2.421875 Z M 2 -2.421875 "/></g></g></g><g fill="#3b3937" fill-opacity="1"><g transform="translate(62.9109, 15.34058)"><g><path d="M 0.15625 -4.671875 L 0.15625 -5.15625 L 3.171875 -5.15625 L 3.171875 -4.671875 L 1.921875 -4.671875 L 1.921875 -0.015625 L 1.40625 -0.015625 L 1.40625 -4.671875 Z M 0.15625 -4.671875 "/></g></g></g><g fill="#3b3937" fill-opacity="1"><g transform="translate(72.05201, 15.34058)"><g><path d="M 3.625 0 L 0.5625 0 L 0.5625 -5.140625 L 3.625 -5.140625 L 3.625 -4.65625 L 1.09375 -4.65625 L 1.09375 -2.828125 L 3.546875 -2.828125 L 3.546875 -2.328125 L 1.09375 -2.328125 L 1.09375 -0.484375 L 3.625 -0.484375 Z M 3.625 0 "/></g></g></g><g fill="#3b3937" fill-opacity="1"><g transform="translate(82.05577, 15.34058)"><g><path d="M 1.09375 -2.546875 L 2.296875 -2.546875 C 2.585938 -2.546875 2.832031 -2.644531 3.03125 -2.84375 C 3.21875 -3.050781 3.3125 -3.304688 3.3125 -3.609375 C 3.3125 -3.898438 3.222656 -4.144531 3.046875 -4.34375 C 2.859375 -4.539062 2.609375 -4.640625 2.296875 -4.640625 L 1.09375 -4.640625 Z M 3.84375 -3.59375 C 3.84375 -3.144531 3.6875 -2.769531 3.375 -2.46875 C 3.09375 -2.207031 2.753906 -2.066406 2.359375 -2.046875 L 3.9375 0 L 3.21875 0 L 1.71875 -2.03125 L 1.09375 -2.03125 L 1.09375 0 L 0.5625 0 L 0.5625 -5.140625 L 2.21875 -5.140625 C 2.675781 -5.140625 3.0625 -5 3.375 -4.71875 C 3.6875 -4.40625 3.84375 -4.03125 3.84375 -3.59375 Z M 3.84375 -3.59375 "/></g></g></g><g fill="#3b3937" fill-opacity="1"><g transform="translate(91.983862, 15.34058)"><g/></g></g><g fill="#3b3937" fill-opacity="1"><g transform="translate(99.838546, 15.34058)"><g><path d="M 1.09375 -0.53125 L 2.9375 -0.53125 L 2.9375 0 L 0.5625 0 L 0.5625 -5.140625 L 1.09375 -5.140625 Z M 1.09375 -0.53125 "/></g></g></g><g fill="#3b3937" fill-opacity="1"><g transform="translate(108.737506, 15.34058)"><g><path d="M 3.625 0 L 0.5625 0 L 0.5625 -5.140625 L 3.625 -5.140625 L 3.625 -4.65625 L 1.09375 -4.65625 L 1.09375 -2.828125 L 3.546875 -2.828125 L 3.546875 -2.328125 L 1.09375 -2.328125 L 1.09375 -0.484375 L 3.625 -0.484375 Z M 3.625 0 "/></g></g></g><g fill="#3b3937" fill-opacity="1"><g transform="translate(118.741266, 15.34058)"><g><path d="M 3.921875 -1.4375 C 3.921875 -1.226562 3.875 -1.023438 3.78125 -0.828125 C 3.6875 -0.640625 3.554688 -0.484375 3.390625 -0.359375 C 3.078125 -0.117188 2.660156 0 2.140625 0 L 0.5625 0 L 0.5625 -5.140625 L 1.953125 -5.140625 C 2.703125 -5.140625 3.191406 -4.910156 3.421875 -4.453125 C 3.503906 -4.285156 3.546875 -4.113281 3.546875 -3.9375 C 3.546875 -3.769531 3.535156 -3.640625 3.515625 -3.546875 C 3.484375 -3.441406 3.441406 -3.34375 3.390625 -3.25 C 3.273438 -3.050781 3.125 -2.910156 2.9375 -2.828125 C 3.238281 -2.753906 3.476562 -2.597656 3.65625 -2.359375 C 3.832031 -2.109375 3.921875 -1.800781 3.921875 -1.4375 Z M 3.015625 -3.859375 C 3.015625 -4.378906 2.660156 -4.640625 1.953125 -4.640625 L 1.09375 -4.640625 L 1.09375 -3.03125 L 2.109375 -3.03125 C 2.378906 -3.03125 2.597656 -3.097656 2.765625 -3.234375 C 2.929688 -3.367188 3.015625 -3.578125 3.015625 -3.859375 Z M 3.390625 -1.53125 C 3.390625 -1.6875 3.363281 -1.820312 3.3125 -1.9375 C 3.25 -2.050781 3.171875 -2.148438 3.078125 -2.234375 C 2.878906 -2.410156 2.644531 -2.5 2.375 -2.5 L 1.09375 -2.5 L 1.09375 -0.5 L 2.296875 -0.5 C 2.617188 -0.5 2.878906 -0.59375 3.078125 -0.78125 C 3.285156 -0.976562 3.390625 -1.226562 3.390625 -1.53125 Z M 3.390625 -1.53125 "/></g></g></g><g fill="#3b3937" fill-opacity="1"><g transform="translate(128.631524, 15.34058)"><g><path d="M 3.625 0 L 0.5625 0 L 0.5625 -5.140625 L 3.625 -5.140625 L 3.625 -4.65625 L 1.09375 -4.65625 L 1.09375 -2.828125 L 3.546875 -2.828125 L 3.546875 -2.328125 L 1.09375 -2.328125 L 1.09375 -0.484375 L 3.625 -0.484375 Z M 3.625 0 "/></g></g></g><g fill="#3b3937" fill-opacity="1"><g transform="translate(138.635284, 15.34058)"><g><path d="M 1.09375 -3.78125 L 1.09375 0 L 0.5625 0 L 0.5625 -5.46875 L 3.453125 -1.359375 L 3.453125 -5.140625 L 3.984375 -5.140625 L 3.984375 0.3125 Z M 1.09375 -3.78125 "/></g></g></g><g fill="#3b3937" fill-opacity="1"><g transform="translate(149.0074, 15.34058)"><g/></g></g></g></g><g clip-path="url(#048d45063e)"><g transform="matrix(1, 0, 0, 1, 33, 200)"><g clip-path="url(#c9c08fbfeb)"><g clip-path="url(#c29e5f43e0)"><path fill="#f4f4f4" d="M 0.507812 0.605469 L 317.800781 0.605469 L 317.800781 37.679688 L 0.507812 37.679688 Z M 0.507812 0.605469 " fill-opacity="1" fill-rule="nonzero"/></g></g></g></g><g fill="#967f71" fill-opacity="1"><g transform="translate(97.562759, 227.124491)"><g><path d="M 11.375 -2.1875 C 11.226562 -1.738281 10.976562 -1.359375 10.625 -1.046875 C 10.28125 -0.742188 9.867188 -0.5 9.390625 -0.3125 C 8.921875 -0.125 8.414062 0.0078125 7.875 0.09375 C 7.332031 0.175781 6.796875 0.21875 6.265625 0.21875 C 6.015625 0.21875 5.773438 0.210938 5.546875 0.203125 C 5.054688 0.171875 4.546875 0.0976562 4.015625 -0.015625 C 3.492188 -0.128906 3.003906 -0.285156 2.546875 -0.484375 C 2.085938 -0.679688 1.703125 -0.925781 1.390625 -1.21875 C 1.078125 -1.519531 0.882812 -1.875 0.8125 -2.28125 C 0.539062 -3.769531 2.140625 -5.304688 5.609375 -6.890625 C 5.753906 -6.960938 5.894531 -6.953125 6.03125 -6.859375 C 6.15625 -6.773438 6.210938 -6.648438 6.203125 -6.484375 C 6.179688 -6.328125 6.097656 -6.21875 5.953125 -6.15625 C 4.910156 -5.675781 4.085938 -5.234375 3.484375 -4.828125 C 2.890625 -4.429688 2.457031 -4.078125 2.1875 -3.765625 C 1.914062 -3.453125 1.75 -3.179688 1.6875 -2.953125 C 1.625 -2.734375 1.601562 -2.5625 1.625 -2.4375 C 1.675781 -2.125 1.882812 -1.835938 2.25 -1.578125 C 2.613281 -1.328125 3.085938 -1.113281 3.671875 -0.9375 C 4.253906 -0.769531 4.898438 -0.664062 5.609375 -0.625 C 6.117188 -0.582031 6.644531 -0.585938 7.1875 -0.640625 C 7.726562 -0.691406 8.234375 -0.789062 8.703125 -0.9375 C 9.179688 -1.082031 9.585938 -1.28125 9.921875 -1.53125 C 10.253906 -1.78125 10.476562 -2.082031 10.59375 -2.4375 C 10.78125 -3.019531 10.796875 -3.597656 10.640625 -4.171875 C 10.484375 -4.753906 10.210938 -5.332031 9.828125 -5.90625 C 9.441406 -6.476562 8.984375 -7.050781 8.453125 -7.625 C 7.921875 -8.195312 7.378906 -8.757812 6.828125 -9.3125 C 6.234375 -9.914062 5.65625 -10.523438 5.09375 -11.140625 C 4.539062 -11.753906 4.070312 -12.375 3.6875 -13 C 3.300781 -13.632812 3.054688 -14.269531 2.953125 -14.90625 C 2.859375 -15.550781 2.972656 -16.203125 3.296875 -16.859375 C 3.679688 -17.628906 4.335938 -18.15625 5.265625 -18.4375 C 6.191406 -18.71875 7.335938 -18.734375 8.703125 -18.484375 C 9.441406 -18.335938 10.195312 -18.117188 10.96875 -17.828125 C 11.75 -17.546875 12.492188 -17.210938 13.203125 -16.828125 C 13.921875 -16.441406 14.566406 -16.023438 15.140625 -15.578125 C 15.710938 -15.128906 16.171875 -14.660156 16.515625 -14.171875 C 16.867188 -13.691406 17.066406 -13.210938 17.109375 -12.734375 C 17.128906 -12.492188 17.09375 -12.234375 17 -11.953125 C 16.914062 -11.671875 16.726562 -11.390625 16.4375 -11.109375 C 16.144531 -10.835938 15.707031 -10.585938 15.125 -10.359375 C 13.53125 -9.921875 11.921875 -9.820312 10.296875 -10.0625 C 10.191406 -10.082031 10.101562 -10.132812 10.03125 -10.21875 C 9.96875 -10.3125 9.941406 -10.410156 9.953125 -10.515625 C 9.972656 -10.628906 10.023438 -10.71875 10.109375 -10.78125 C 10.203125 -10.851562 10.300781 -10.882812 10.40625 -10.875 C 11.894531 -10.65625 13.367188 -10.738281 14.828125 -11.125 C 15.859375 -11.519531 16.347656 -12.03125 16.296875 -12.65625 C 16.265625 -13.019531 16.09375 -13.398438 15.78125 -13.796875 C 15.476562 -14.191406 15.066406 -14.585938 14.546875 -14.984375 C 14.035156 -15.378906 13.453125 -15.753906 12.796875 -16.109375 C 12.140625 -16.460938 11.445312 -16.773438 10.71875 -17.046875 C 10 -17.316406 9.273438 -17.519531 8.546875 -17.65625 C 8.210938 -17.71875 7.828125 -17.765625 7.390625 -17.796875 C 6.953125 -17.835938 6.515625 -17.828125 6.078125 -17.765625 C 5.640625 -17.710938 5.238281 -17.585938 4.875 -17.390625 C 4.507812 -17.191406 4.226562 -16.894531 4.03125 -16.5 C 3.769531 -15.96875 3.691406 -15.4375 3.796875 -14.90625 C 3.898438 -14.375 4.128906 -13.828125 4.484375 -13.265625 C 4.835938 -12.710938 5.269531 -12.15625 5.78125 -11.59375 C 6.300781 -11.039062 6.847656 -10.472656 7.421875 -9.890625 C 8.023438 -9.285156 8.609375 -8.671875 9.171875 -8.046875 C 9.734375 -7.429688 10.21875 -6.804688 10.625 -6.171875 C 11.039062 -5.535156 11.320312 -4.890625 11.46875 -4.234375 C 11.625 -3.578125 11.59375 -2.894531 11.375 -2.1875 Z M 11.375 -2.1875 "/></g></g></g><g fill="#967f71" fill-opacity="1"><g transform="translate(110.911925, 227.124491)"><g><path d="M 10.765625 -4.265625 C 10.847656 -4.191406 10.890625 -4.097656 10.890625 -3.984375 C 10.890625 -3.867188 10.847656 -3.769531 10.765625 -3.6875 C 10.734375 -3.65625 10.582031 -3.507812 10.3125 -3.25 C 10.039062 -3 9.679688 -2.691406 9.234375 -2.328125 C 8.785156 -1.960938 8.273438 -1.601562 7.703125 -1.25 C 7.128906 -0.90625 6.53125 -0.613281 5.90625 -0.375 C 5.289062 -0.132812 4.671875 -0.015625 4.046875 -0.015625 C 3.617188 -0.015625 3.195312 -0.09375 2.78125 -0.25 C 1.832031 -0.601562 1.132812 -1.390625 0.6875 -2.609375 C 0.238281 -3.835938 0.0703125 -5.382812 0.1875 -7.25 C 0.175781 -7.332031 0.140625 -7.398438 0.078125 -7.453125 C 0.015625 -7.503906 -0.0546875 -7.523438 -0.140625 -7.515625 C -0.929688 -7.453125 -1.648438 -7.394531 -2.296875 -7.34375 C -2.953125 -7.300781 -3.472656 -7.265625 -3.859375 -7.234375 C -4.242188 -7.210938 -4.445312 -7.203125 -4.46875 -7.203125 L -4.5 -7.203125 C -4.613281 -7.191406 -4.710938 -7.222656 -4.796875 -7.296875 C -4.878906 -7.378906 -4.921875 -7.476562 -4.921875 -7.59375 C -4.921875 -7.707031 -4.882812 -7.804688 -4.8125 -7.890625 C -4.738281 -7.984375 -4.644531 -8.03125 -4.53125 -8.03125 C -4.507812 -8.03125 -4.296875 -8.046875 -3.890625 -8.078125 C -3.484375 -8.109375 -2.9375 -8.148438 -2.25 -8.203125 C -1.570312 -8.253906 -0.820312 -8.304688 0 -8.359375 C 0.09375 -8.367188 0.164062 -8.414062 0.21875 -8.5 C 0.28125 -8.582031 0.320312 -8.679688 0.34375 -8.796875 C 0.4375 -9.410156 0.554688 -10.035156 0.703125 -10.671875 C 0.859375 -11.316406 1.035156 -11.914062 1.234375 -12.46875 C 1.429688 -13.03125 1.65625 -13.488281 1.90625 -13.84375 C 2.15625 -14.207031 2.425781 -14.421875 2.71875 -14.484375 C 2.832031 -14.503906 2.984375 -14.484375 3.171875 -14.421875 C 3.367188 -14.367188 3.546875 -14.179688 3.703125 -13.859375 C 3.816406 -13.640625 3.84375 -13.269531 3.78125 -12.75 C 3.71875 -12.226562 3.59375 -11.628906 3.40625 -10.953125 C 3.21875 -10.273438 3 -9.578125 2.75 -8.859375 C 2.695312 -8.722656 2.691406 -8.632812 2.734375 -8.59375 C 2.785156 -8.5625 2.828125 -8.546875 2.859375 -8.546875 C 3.867188 -8.609375 4.828125 -8.660156 5.734375 -8.703125 C 6.648438 -8.742188 7.414062 -8.765625 8.03125 -8.765625 C 8.144531 -8.765625 8.238281 -8.722656 8.3125 -8.640625 C 8.394531 -8.554688 8.4375 -8.460938 8.4375 -8.359375 C 8.4375 -8.242188 8.394531 -8.144531 8.3125 -8.0625 C 8.238281 -7.976562 8.144531 -7.9375 8.03125 -7.9375 C 7.394531 -7.9375 6.585938 -7.914062 5.609375 -7.875 C 4.640625 -7.832031 3.625 -7.769531 2.5625 -7.6875 C 2.46875 -7.6875 2.398438 -7.675781 2.359375 -7.65625 C 2.328125 -7.632812 2.296875 -7.585938 2.265625 -7.515625 C 2.046875 -6.867188 1.828125 -6.269531 1.609375 -5.71875 C 1.398438 -5.175781 1.226562 -4.738281 1.09375 -4.40625 C 1.15625 -3.914062 1.257812 -3.441406 1.40625 -2.984375 C 1.5625 -2.523438 1.769531 -2.117188 2.03125 -1.765625 C 2.300781 -1.421875 2.648438 -1.171875 3.078125 -1.015625 C 3.546875 -0.835938 4.046875 -0.789062 4.578125 -0.875 C 5.109375 -0.957031 5.632812 -1.117188 6.15625 -1.359375 C 6.6875 -1.609375 7.191406 -1.894531 7.671875 -2.21875 C 8.148438 -2.539062 8.578125 -2.859375 8.953125 -3.171875 C 9.328125 -3.484375 9.625 -3.738281 9.84375 -3.9375 C 10.0625 -4.144531 10.175781 -4.253906 10.1875 -4.265625 C 10.257812 -4.347656 10.351562 -4.390625 10.46875 -4.390625 C 10.582031 -4.390625 10.679688 -4.347656 10.765625 -4.265625 Z M 1.171875 -8.8125 C 1.160156 -8.75 1.15625 -8.671875 1.15625 -8.578125 C 1.15625 -8.492188 1.195312 -8.453125 1.28125 -8.453125 C 1.363281 -8.453125 1.445312 -8.457031 1.53125 -8.46875 C 1.6875 -8.476562 1.78125 -8.566406 1.8125 -8.734375 C 2.082031 -9.515625 2.316406 -10.238281 2.515625 -10.90625 C 2.710938 -11.582031 2.851562 -12.144531 2.9375 -12.59375 C 3.019531 -13.050781 3.03125 -13.347656 2.96875 -13.484375 C 2.945312 -13.546875 2.90625 -13.585938 2.84375 -13.609375 C 2.78125 -13.617188 2.726562 -13.601562 2.6875 -13.5625 C 2.53125 -13.40625 2.359375 -13.097656 2.171875 -12.640625 C 1.984375 -12.191406 1.796875 -11.640625 1.609375 -10.984375 C 1.429688 -10.328125 1.285156 -9.601562 1.171875 -8.8125 Z M 0.96875 -6.359375 C 1.007812 -6.359375 1.0625 -6.414062 1.125 -6.53125 C 1.195312 -6.644531 1.257812 -6.78125 1.3125 -6.9375 C 1.375 -7.09375 1.414062 -7.238281 1.4375 -7.375 C 1.46875 -7.507812 1.46875 -7.59375 1.4375 -7.625 C 1.289062 -7.695312 1.15625 -7.6875 1.03125 -7.59375 C 0.988281 -7.550781 0.957031 -7.460938 0.9375 -7.328125 C 0.914062 -7.203125 0.898438 -7.0625 0.890625 -6.90625 C 0.878906 -6.757812 0.878906 -6.628906 0.890625 -6.515625 C 0.910156 -6.410156 0.9375 -6.359375 0.96875 -6.359375 Z M 0.96875 -6.359375 "/></g></g></g><g fill="#967f71" fill-opacity="1"><g transform="translate(120.9238, 227.124491)"><g><path d="M 13.15625 -4.03125 C 13.226562 -3.945312 13.257812 -3.847656 13.25 -3.734375 C 13.238281 -3.617188 13.1875 -3.523438 13.09375 -3.453125 C 13.039062 -3.421875 12.847656 -3.28125 12.515625 -3.03125 C 12.179688 -2.789062 11.734375 -2.5 11.171875 -2.15625 C 10.609375 -1.8125 9.957031 -1.472656 9.21875 -1.140625 C 8.476562 -0.804688 7.679688 -0.53125 6.828125 -0.3125 C 5.984375 -0.09375 5.113281 0.015625 4.21875 0.015625 C 3.15625 0.0234375 2.128906 -0.164062 1.140625 -0.5625 C 0.597656 -0.78125 0.21875 -1.035156 0 -1.328125 C -0.21875 -1.617188 -0.34375 -1.90625 -0.375 -2.1875 C -0.40625 -2.476562 -0.398438 -2.722656 -0.359375 -2.921875 C -0.265625 -3.304688 -0.0820312 -3.675781 0.1875 -4.03125 C 0.457031 -4.394531 0.773438 -4.71875 1.140625 -5 C 1.503906 -5.289062 1.878906 -5.515625 2.265625 -5.671875 C 2.648438 -5.828125 3 -5.894531 3.3125 -5.875 C 3.59375 -5.875 3.832031 -5.773438 4.03125 -5.578125 C 4.238281 -5.378906 4.351562 -5.132812 4.375 -4.84375 C 4.382812 -4.675781 4.34375 -4.46875 4.25 -4.21875 C 4.15625 -3.976562 3.914062 -3.734375 3.53125 -3.484375 C 2.632812 -2.929688 1.660156 -2.6875 0.609375 -2.75 C 0.554688 -2.757812 0.507812 -2.75 0.46875 -2.71875 C 0.425781 -2.6875 0.410156 -2.640625 0.421875 -2.578125 C 0.410156 -2.484375 0.421875 -2.363281 0.453125 -2.21875 C 0.484375 -2.070312 0.570312 -1.921875 0.71875 -1.765625 C 0.863281 -1.609375 1.109375 -1.460938 1.453125 -1.328125 C 2.160156 -1.023438 2.890625 -0.851562 3.640625 -0.8125 C 4.390625 -0.769531 5.125 -0.816406 5.84375 -0.953125 C 6.5625 -1.085938 7.253906 -1.273438 7.921875 -1.515625 C 8.585938 -1.765625 9.195312 -2.035156 9.75 -2.328125 C 10.3125 -2.628906 10.800781 -2.910156 11.21875 -3.171875 C 11.632812 -3.429688 11.960938 -3.648438 12.203125 -3.828125 C 12.441406 -4.003906 12.5625 -4.09375 12.5625 -4.09375 C 12.65625 -4.164062 12.757812 -4.195312 12.875 -4.1875 C 12.988281 -4.175781 13.082031 -4.125 13.15625 -4.03125 Z M 0.96875 -3.703125 C 0.851562 -3.546875 0.863281 -3.457031 1 -3.4375 C 1.144531 -3.425781 1.347656 -3.457031 1.609375 -3.53125 C 1.867188 -3.613281 2.140625 -3.710938 2.421875 -3.828125 C 2.703125 -3.953125 2.925781 -4.066406 3.09375 -4.171875 C 3.414062 -4.390625 3.566406 -4.585938 3.546875 -4.765625 C 3.535156 -4.878906 3.503906 -4.953125 3.453125 -4.984375 C 3.410156 -5.023438 3.347656 -5.050781 3.265625 -5.0625 C 2.929688 -5.082031 2.539062 -4.960938 2.09375 -4.703125 C 1.65625 -4.453125 1.28125 -4.117188 0.96875 -3.703125 Z M 0.96875 -3.703125 "/></g></g></g><g fill="#967f71" fill-opacity="1"><g transform="translate(133.473894, 227.124491)"><g><path d="M 10.375 -4.09375 C 10.445312 -4.007812 10.484375 -3.910156 10.484375 -3.796875 C 10.484375 -3.679688 10.441406 -3.585938 10.359375 -3.515625 C 9.898438 -3.066406 9.34375 -2.738281 8.6875 -2.53125 C 8.03125 -2.320312 7.351562 -2.195312 6.65625 -2.15625 C 5.957031 -2.113281 5.304688 -2.113281 4.703125 -2.15625 C 3.429688 -2.25 2.179688 -2.488281 0.953125 -2.875 C 0.828125 -2.914062 0.726562 -2.90625 0.65625 -2.84375 C 0.582031 -2.789062 0.550781 -2.691406 0.5625 -2.546875 C 0.570312 -2.398438 0.582031 -2.242188 0.59375 -2.078125 C 0.613281 -1.921875 0.632812 -1.757812 0.65625 -1.59375 C 0.75 -0.507812 0.828125 0.535156 0.890625 1.546875 C 0.953125 2.554688 0.960938 3.46875 0.921875 4.28125 C 0.890625 5.09375 0.78125 5.765625 0.59375 6.296875 C 0.414062 6.828125 0.128906 7.160156 -0.265625 7.296875 C -0.347656 7.328125 -0.429688 7.34375 -0.515625 7.34375 C -0.703125 7.34375 -0.863281 7.28125 -1 7.15625 C -1.195312 6.96875 -1.328125 6.617188 -1.390625 6.109375 C -1.460938 5.609375 -1.484375 5 -1.453125 4.28125 C -1.421875 3.5625 -1.347656 2.785156 -1.234375 1.953125 C -1.117188 1.128906 -0.976562 0.300781 -0.8125 -0.53125 C -0.65625 -1.375 -0.484375 -2.171875 -0.296875 -2.921875 C -0.296875 -2.941406 -0.296875 -2.960938 -0.296875 -2.984375 C -0.328125 -3.398438 -0.320312 -3.675781 -0.28125 -3.8125 C -0.25 -3.957031 -0.171875 -4.054688 -0.046875 -4.109375 C -0.0351562 -4.179688 -0.00390625 -4.25 0.046875 -4.3125 L 0.078125 -4.34375 C 0.222656 -4.832031 0.382812 -5.34375 0.5625 -5.875 C 0.75 -6.414062 0.953125 -6.9375 1.171875 -7.4375 C 1.390625 -7.945312 1.625 -8.382812 1.875 -8.75 C 2.125 -9.125 2.394531 -9.390625 2.6875 -9.546875 C 2.945312 -9.703125 3.222656 -9.738281 3.515625 -9.65625 C 3.796875 -9.582031 3.976562 -9.40625 4.0625 -9.125 C 4.113281 -8.90625 4.082031 -8.628906 3.96875 -8.296875 C 3.851562 -7.972656 3.675781 -7.625 3.4375 -7.25 C 3.207031 -6.875 2.945312 -6.492188 2.65625 -6.109375 C 2.363281 -5.734375 2.070312 -5.375 1.78125 -5.03125 C 1.488281 -4.695312 1.234375 -4.40625 1.015625 -4.15625 C 0.910156 -4.039062 0.859375 -3.945312 0.859375 -3.875 C 0.867188 -3.800781 0.960938 -3.734375 1.140625 -3.671875 C 1.492188 -3.554688 1.957031 -3.4375 2.53125 -3.3125 C 3.101562 -3.195312 3.722656 -3.101562 4.390625 -3.03125 C 5.066406 -2.96875 5.742188 -2.953125 6.421875 -2.984375 C 7.097656 -3.015625 7.734375 -3.113281 8.328125 -3.28125 C 8.921875 -3.457031 9.40625 -3.726562 9.78125 -4.09375 C 9.863281 -4.175781 9.960938 -4.21875 10.078125 -4.21875 C 10.191406 -4.21875 10.289062 -4.175781 10.375 -4.09375 Z M 3.078125 -8.828125 C 3.015625 -8.773438 2.90625 -8.644531 2.75 -8.4375 C 2.601562 -8.238281 2.441406 -8 2.265625 -7.71875 C 2.097656 -7.445312 1.9375 -7.175781 1.78125 -6.90625 C 1.625 -6.644531 1.5 -6.421875 1.40625 -6.234375 C 1.3125 -6.046875 1.269531 -5.925781 1.28125 -5.875 C 1.300781 -5.832031 1.394531 -5.898438 1.5625 -6.078125 C 1.78125 -6.296875 2 -6.554688 2.21875 -6.859375 C 2.4375 -7.171875 2.632812 -7.476562 2.8125 -7.78125 C 2.988281 -8.09375 3.117188 -8.347656 3.203125 -8.546875 C 3.285156 -8.753906 3.304688 -8.875 3.265625 -8.90625 C 3.222656 -8.925781 3.179688 -8.914062 3.140625 -8.875 C 3.097656 -8.84375 3.078125 -8.828125 3.078125 -8.828125 Z M -0.484375 6.5 C -0.398438 6.507812 -0.320312 6.398438 -0.25 6.171875 C -0.1875 5.941406 -0.128906 5.628906 -0.078125 5.234375 C -0.0351562 4.847656 0 4.421875 0.03125 3.953125 C 0.0625 3.484375 0.0820312 3.007812 0.09375 2.53125 C 0.101562 2.0625 0.101562 1.628906 0.09375 1.234375 C 0.0820312 0.835938 0.0625 0.519531 0.03125 0.28125 C 0.0078125 0.0390625 -0.0195312 -0.078125 -0.0625 -0.078125 C -0.125 -0.078125 -0.1875 0.078125 -0.25 0.390625 C -0.320312 0.703125 -0.390625 1.101562 -0.453125 1.59375 C -0.515625 2.09375 -0.566406 2.617188 -0.609375 3.171875 C -0.660156 3.734375 -0.691406 4.257812 -0.703125 4.75 C -0.710938 5.25 -0.703125 5.660156 -0.671875 5.984375 C -0.640625 6.304688 -0.578125 6.476562 -0.484375 6.5 Z M -0.484375 6.5 "/></g></g></g><g fill="#967f71" fill-opacity="1"><g transform="translate(143.188073, 227.124491)"><g><path d="M 13.109375 -3.8125 C 13.179688 -3.726562 13.21875 -3.628906 13.21875 -3.515625 C 13.207031 -3.398438 13.160156 -3.304688 13.078125 -3.234375 C 13.035156 -3.203125 12.875 -3.066406 12.59375 -2.828125 C 12.320312 -2.597656 11.957031 -2.328125 11.5 -2.015625 C 11.050781 -1.703125 10.539062 -1.394531 9.96875 -1.09375 C 9.40625 -0.800781 8.804688 -0.566406 8.171875 -0.390625 C 7.535156 -0.210938 6.898438 -0.144531 6.265625 -0.1875 C 5.640625 -0.226562 5.039062 -0.4375 4.46875 -0.8125 C 4.03125 -1.09375 3.679688 -1.457031 3.421875 -1.90625 C 3.347656 -2.03125 3.234375 -2.097656 3.078125 -2.109375 C 2.929688 -2.117188 2.816406 -2.0625 2.734375 -1.9375 C 2.492188 -1.59375 2.238281 -1.265625 1.96875 -0.953125 C 1.695312 -0.648438 1.421875 -0.40625 1.140625 -0.21875 C 0.859375 -0.03125 0.585938 0.0664062 0.328125 0.078125 L 0.3125 0.078125 C 0.125 0.0664062 -0.046875 0.0078125 -0.203125 -0.09375 C -0.367188 -0.207031 -0.488281 -0.351562 -0.5625 -0.53125 C -0.875 -1.3125 -0.828125 -2.078125 -0.421875 -2.828125 C -0.078125 -3.546875 0.398438 -4.15625 1.015625 -4.65625 C 1.640625 -5.164062 2.347656 -5.515625 3.140625 -5.703125 C 3.296875 -5.742188 3.425781 -5.707031 3.53125 -5.59375 C 3.644531 -5.476562 3.679688 -5.34375 3.640625 -5.1875 C 3.585938 -5.039062 3.484375 -4.945312 3.328125 -4.90625 C 2.660156 -4.75 2.066406 -4.457031 1.546875 -4.03125 C 1.023438 -3.613281 0.617188 -3.09375 0.328125 -2.46875 C 0.0351562 -1.96875 -0.015625 -1.445312 0.171875 -0.90625 C 0.234375 -0.800781 0.28125 -0.75 0.3125 -0.75 C 0.40625 -0.6875 0.546875 -0.75 0.734375 -0.9375 C 0.921875 -1.132812 1.132812 -1.410156 1.375 -1.765625 C 1.613281 -2.117188 1.847656 -2.507812 2.078125 -2.9375 C 2.316406 -3.375 2.535156 -3.796875 2.734375 -4.203125 C 2.816406 -4.390625 2.960938 -4.46875 3.171875 -4.4375 C 3.367188 -4.40625 3.484375 -4.289062 3.515625 -4.09375 C 3.515625 -4.082031 3.535156 -3.976562 3.578125 -3.78125 C 3.617188 -3.59375 3.691406 -3.359375 3.796875 -3.078125 C 3.898438 -2.796875 4.039062 -2.507812 4.21875 -2.21875 C 4.40625 -1.925781 4.640625 -1.6875 4.921875 -1.5 C 5.398438 -1.175781 5.914062 -1.003906 6.46875 -0.984375 C 7.03125 -0.972656 7.59375 -1.054688 8.15625 -1.234375 C 8.726562 -1.421875 9.269531 -1.648438 9.78125 -1.921875 C 10.300781 -2.203125 10.765625 -2.488281 11.171875 -2.78125 C 11.578125 -3.082031 11.898438 -3.332031 12.140625 -3.53125 C 12.378906 -3.726562 12.503906 -3.832031 12.515625 -3.84375 C 12.597656 -3.914062 12.695312 -3.945312 12.8125 -3.9375 C 12.925781 -3.9375 13.023438 -3.894531 13.109375 -3.8125 Z M 13.109375 -3.8125 "/></g></g></g><g fill="#967f71" fill-opacity="1"><g transform="translate(155.847847, 227.124491)"><g><path d="M 13.703125 -3.90625 C 13.785156 -3.832031 13.828125 -3.738281 13.828125 -3.625 C 13.835938 -3.507812 13.800781 -3.410156 13.71875 -3.328125 C 13.695312 -3.296875 13.582031 -3.175781 13.375 -2.96875 C 13.164062 -2.769531 12.878906 -2.523438 12.515625 -2.234375 C 12.160156 -1.941406 11.75 -1.648438 11.28125 -1.359375 C 10.8125 -1.078125 10.304688 -0.835938 9.765625 -0.640625 C 9.222656 -0.441406 8.660156 -0.328125 8.078125 -0.296875 C 7.492188 -0.265625 6.910156 -0.367188 6.328125 -0.609375 C 5.515625 -1.015625 4.882812 -1.613281 4.4375 -2.40625 C 4.375 -2.488281 4.285156 -2.617188 4.171875 -2.796875 C 4.054688 -2.984375 3.898438 -3.070312 3.703125 -3.0625 C 3.609375 -3.0625 3.46875 -3.03125 3.28125 -2.96875 C 3.101562 -2.914062 2.867188 -2.800781 2.578125 -2.625 C 2.285156 -2.445312 1.941406 -2.175781 1.546875 -1.8125 C 1.148438 -1.445312 0.6875 -0.957031 0.15625 -0.34375 C 0.0195312 -0.1875 -0.144531 -0.15625 -0.34375 -0.25 C -0.53125 -0.34375 -0.597656 -0.492188 -0.546875 -0.703125 L 0.234375 -4.15625 C 0.253906 -4.257812 0.3125 -4.34375 0.40625 -4.40625 C 0.507812 -4.46875 0.613281 -4.484375 0.71875 -4.453125 C 0.832031 -4.429688 0.914062 -4.367188 0.96875 -4.265625 C 1.03125 -4.171875 1.050781 -4.070312 1.03125 -3.96875 L 0.671875 -2.40625 C 0.660156 -2.351562 0.679688 -2.3125 0.734375 -2.28125 C 0.785156 -2.257812 0.832031 -2.269531 0.875 -2.3125 C 2.039062 -3.414062 3.019531 -3.941406 3.8125 -3.890625 C 4.144531 -3.867188 4.425781 -3.734375 4.65625 -3.484375 C 4.832031 -3.296875 4.988281 -3.09375 5.125 -2.875 C 5.476562 -2.21875 5.976562 -1.71875 6.625 -1.375 C 7.125 -1.164062 7.628906 -1.082031 8.140625 -1.125 C 8.660156 -1.164062 9.160156 -1.28125 9.640625 -1.46875 C 10.117188 -1.65625 10.566406 -1.878906 10.984375 -2.140625 C 11.398438 -2.410156 11.765625 -2.675781 12.078125 -2.9375 C 12.398438 -3.207031 12.648438 -3.429688 12.828125 -3.609375 C 13.015625 -3.785156 13.113281 -3.878906 13.125 -3.890625 C 13.195312 -3.972656 13.289062 -4.015625 13.40625 -4.015625 C 13.519531 -4.015625 13.617188 -3.976562 13.703125 -3.90625 Z M 13.703125 -3.90625 "/></g></g></g><g fill="#967f71" fill-opacity="1"><g transform="translate(168.899318, 227.124491)"><g><path d="M 10.15625 -4.234375 C 10.238281 -4.160156 10.28125 -4.066406 10.28125 -3.953125 C 10.28125 -3.835938 10.242188 -3.738281 10.171875 -3.65625 C 10.128906 -3.625 9.96875 -3.476562 9.6875 -3.21875 C 9.414062 -2.957031 9.050781 -2.644531 8.59375 -2.28125 C 8.144531 -1.914062 7.625 -1.554688 7.03125 -1.203125 C 6.445312 -0.847656 5.820312 -0.550781 5.15625 -0.3125 C 4.5 -0.0820312 3.835938 0.03125 3.171875 0.03125 C 2.203125 0.0390625 1.335938 -0.238281 0.578125 -0.8125 C 0.265625 -1.039062 0.0507812 -1.3125 -0.0625 -1.625 C -0.175781 -1.9375 -0.222656 -2.257812 -0.203125 -2.59375 C -0.191406 -2.9375 -0.144531 -3.253906 -0.0625 -3.546875 C 0.0195312 -3.835938 0.0976562 -4.078125 0.171875 -4.265625 C 0.253906 -4.453125 0.300781 -4.554688 0.3125 -4.578125 C 0.375 -4.671875 0.457031 -4.734375 0.5625 -4.765625 C 0.664062 -4.796875 0.765625 -4.785156 0.859375 -4.734375 C 0.960938 -4.679688 1.03125 -4.601562 1.0625 -4.5 C 1.101562 -4.394531 1.097656 -4.296875 1.046875 -4.203125 C 1.046875 -4.191406 1.015625 -4.117188 0.953125 -3.984375 C 0.890625 -3.847656 0.820312 -3.671875 0.75 -3.453125 C 0.6875 -3.234375 0.640625 -3 0.609375 -2.75 C 0.585938 -2.5 0.609375 -2.257812 0.671875 -2.03125 C 0.734375 -1.800781 0.863281 -1.613281 1.0625 -1.46875 C 1.539062 -1.113281 2.050781 -0.898438 2.59375 -0.828125 C 3.132812 -0.753906 3.675781 -0.78125 4.21875 -0.90625 C 4.757812 -1.039062 5.289062 -1.234375 5.8125 -1.484375 C 6.332031 -1.742188 6.816406 -2.03125 7.265625 -2.34375 C 7.722656 -2.65625 8.125 -2.953125 8.46875 -3.234375 C 8.8125 -3.515625 9.078125 -3.75 9.265625 -3.9375 C 9.460938 -4.125 9.566406 -4.222656 9.578125 -4.234375 C 9.660156 -4.316406 9.753906 -4.359375 9.859375 -4.359375 C 9.972656 -4.359375 10.070312 -4.316406 10.15625 -4.234375 Z M 0.140625 -5.46875 C -0.0664062 -5.46875 -0.195312 -5.570312 -0.25 -5.78125 C -0.300781 -5.988281 -0.234375 -6.144531 -0.046875 -6.25 C 0.242188 -6.394531 0.503906 -6.585938 0.734375 -6.828125 C 0.816406 -6.910156 0.910156 -6.953125 1.015625 -6.953125 C 1.128906 -6.953125 1.226562 -6.914062 1.3125 -6.84375 C 1.394531 -6.757812 1.4375 -6.660156 1.4375 -6.546875 C 1.445312 -6.441406 1.410156 -6.347656 1.328125 -6.265625 C 1.035156 -5.960938 0.707031 -5.71875 0.34375 -5.53125 C 0.28125 -5.488281 0.210938 -5.46875 0.140625 -5.46875 Z M 0.140625 -5.46875 "/></g></g></g><g fill="#967f71" fill-opacity="1"><g transform="translate(178.519495, 227.124491)"><g><path d="M 13.15625 -4.03125 C 13.226562 -3.945312 13.257812 -3.847656 13.25 -3.734375 C 13.238281 -3.617188 13.1875 -3.523438 13.09375 -3.453125 C 13.039062 -3.421875 12.847656 -3.28125 12.515625 -3.03125 C 12.179688 -2.789062 11.734375 -2.5 11.171875 -2.15625 C 10.609375 -1.8125 9.957031 -1.472656 9.21875 -1.140625 C 8.476562 -0.804688 7.679688 -0.53125 6.828125 -0.3125 C 5.984375 -0.09375 5.113281 0.015625 4.21875 0.015625 C 3.15625 0.0234375 2.128906 -0.164062 1.140625 -0.5625 C 0.597656 -0.78125 0.21875 -1.035156 0 -1.328125 C -0.21875 -1.617188 -0.34375 -1.90625 -0.375 -2.1875 C -0.40625 -2.476562 -0.398438 -2.722656 -0.359375 -2.921875 C -0.265625 -3.304688 -0.0820312 -3.675781 0.1875 -4.03125 C 0.457031 -4.394531 0.773438 -4.71875 1.140625 -5 C 1.503906 -5.289062 1.878906 -5.515625 2.265625 -5.671875 C 2.648438 -5.828125 3 -5.894531 3.3125 -5.875 C 3.59375 -5.875 3.832031 -5.773438 4.03125 -5.578125 C 4.238281 -5.378906 4.351562 -5.132812 4.375 -4.84375 C 4.382812 -4.675781 4.34375 -4.46875 4.25 -4.21875 C 4.15625 -3.976562 3.914062 -3.734375 3.53125 -3.484375 C 2.632812 -2.929688 1.660156 -2.6875 0.609375 -2.75 C 0.554688 -2.757812 0.507812 -2.75 0.46875 -2.71875 C 0.425781 -2.6875 0.410156 -2.640625 0.421875 -2.578125 C 0.410156 -2.484375 0.421875 -2.363281 0.453125 -2.21875 C 0.484375 -2.070312 0.570312 -1.921875 0.71875 -1.765625 C 0.863281 -1.609375 1.109375 -1.460938 1.453125 -1.328125 C 2.160156 -1.023438 2.890625 -0.851562 3.640625 -0.8125 C 4.390625 -0.769531 5.125 -0.816406 5.84375 -0.953125 C 6.5625 -1.085938 7.253906 -1.273438 7.921875 -1.515625 C 8.585938 -1.765625 9.195312 -2.035156 9.75 -2.328125 C 10.3125 -2.628906 10.800781 -2.910156 11.21875 -3.171875 C 11.632812 -3.429688 11.960938 -3.648438 12.203125 -3.828125 C 12.441406 -4.003906 12.5625 -4.09375 12.5625 -4.09375 C 12.65625 -4.164062 12.757812 -4.195312 12.875 -4.1875 C 12.988281 -4.175781 13.082031 -4.125 13.15625 -4.03125 Z M 0.96875 -3.703125 C 0.851562 -3.546875 0.863281 -3.457031 1 -3.4375 C 1.144531 -3.425781 1.347656 -3.457031 1.609375 -3.53125 C 1.867188 -3.613281 2.140625 -3.710938 2.421875 -3.828125 C 2.703125 -3.953125 2.925781 -4.066406 3.09375 -4.171875 C 3.414062 -4.390625 3.566406 -4.585938 3.546875 -4.765625 C 3.535156 -4.878906 3.503906 -4.953125 3.453125 -4.984375 C 3.410156 -5.023438 3.347656 -5.050781 3.265625 -5.0625 C 2.929688 -5.082031 2.539062 -4.960938 2.09375 -4.703125 C 1.65625 -4.453125 1.28125 -4.117188 0.96875 -3.703125 Z M 0.96875 -3.703125 "/></g></g></g><g fill="#967f71" fill-opacity="1"><g transform="translate(191.069589, 227.124491)"><g/></g></g><g fill="#967f71" fill-opacity="1"><g transform="translate(196.898099, 227.124491)"><g><path d="M 4.984375 -0.171875 L 4.9375 -0.171875 C 4.800781 -0.171875 4.691406 -0.226562 4.609375 -0.34375 C 4.523438 -0.457031 4.507812 -0.582031 4.5625 -0.71875 C 4.8125 -1.382812 5.09375 -2.1875 5.40625 -3.125 C 5.71875 -4.070312 6.03125 -5.039062 6.34375 -6.03125 C 6.363281 -6.113281 6.347656 -6.1875 6.296875 -6.25 C 6.253906 -6.3125 6.191406 -6.335938 6.109375 -6.328125 C 4.816406 -6.179688 3.601562 -6.4375 2.46875 -7.09375 C 1.957031 -7.394531 1.53125 -7.78125 1.1875 -8.25 C 0.84375 -8.71875 0.59375 -9.234375 0.4375 -9.796875 C 0.289062 -10.359375 0.253906 -10.929688 0.328125 -11.515625 C 0.429688 -12.453125 0.78125 -13.347656 1.375 -14.203125 C 1.976562 -15.066406 2.789062 -15.847656 3.8125 -16.546875 C 4.832031 -17.242188 6.023438 -17.832031 7.390625 -18.3125 C 8.585938 -18.71875 9.800781 -18.941406 11.03125 -18.984375 C 12.257812 -19.023438 13.4375 -18.882812 14.5625 -18.5625 C 15.695312 -18.25 16.703125 -17.769531 17.578125 -17.125 C 18.367188 -16.59375 18.984375 -15.90625 19.421875 -15.0625 C 19.859375 -14.21875 20.066406 -13.320312 20.046875 -12.375 C 19.992188 -11.25 19.757812 -10.203125 19.34375 -9.234375 C 18.925781 -8.265625 18.367188 -7.375 17.671875 -6.5625 C 16.984375 -5.75 16.207031 -5.015625 15.34375 -4.359375 C 14.476562 -3.710938 13.566406 -3.132812 12.609375 -2.625 C 11.660156 -2.125 10.71875 -1.695312 9.78125 -1.34375 C 8.851562 -1 7.972656 -0.726562 7.140625 -0.53125 C 6.304688 -0.332031 5.585938 -0.210938 4.984375 -0.171875 Z M 7.25 -6.203125 C 6.988281 -5.359375 6.722656 -4.515625 6.453125 -3.671875 C 6.179688 -2.835938 5.925781 -2.082031 5.6875 -1.40625 C 5.65625 -1.332031 5.664062 -1.257812 5.71875 -1.1875 C 5.78125 -1.125 5.851562 -1.101562 5.9375 -1.125 C 6.664062 -1.25 7.492188 -1.457031 8.421875 -1.75 C 9.347656 -2.050781 10.300781 -2.4375 11.28125 -2.90625 C 12.257812 -3.375 13.207031 -3.921875 14.125 -4.546875 C 15.050781 -5.171875 15.890625 -5.878906 16.640625 -6.671875 C 17.390625 -7.472656 17.992188 -8.347656 18.453125 -9.296875 C 18.921875 -10.253906 19.175781 -11.289062 19.21875 -12.40625 C 19.226562 -13.226562 19.039062 -13.992188 18.65625 -14.703125 C 18.28125 -15.421875 17.753906 -16.007812 17.078125 -16.46875 C 16.285156 -17.0625 15.363281 -17.5 14.3125 -17.78125 C 13.269531 -18.070312 12.175781 -18.195312 11.03125 -18.15625 C 9.894531 -18.113281 8.769531 -17.898438 7.65625 -17.515625 C 6.394531 -17.085938 5.289062 -16.554688 4.34375 -15.921875 C 3.40625 -15.296875 2.660156 -14.597656 2.109375 -13.828125 C 1.554688 -13.054688 1.234375 -12.253906 1.140625 -11.421875 C 1.046875 -10.703125 1.15625 -10.015625 1.46875 -9.359375 C 1.789062 -8.703125 2.269531 -8.179688 2.90625 -7.796875 C 4 -7.171875 5.160156 -6.960938 6.390625 -7.171875 C 6.609375 -7.210938 6.75 -7.335938 6.8125 -7.546875 C 7.0625 -8.347656 7.296875 -9.109375 7.515625 -9.828125 C 7.734375 -10.546875 7.921875 -11.164062 8.078125 -11.6875 C 8.097656 -11.78125 8.078125 -11.859375 8.015625 -11.921875 C 7.953125 -11.984375 7.875 -12 7.78125 -11.96875 C 6.957031 -11.738281 6.191406 -11.851562 5.484375 -12.3125 C 5.390625 -12.375 5.328125 -12.457031 5.296875 -12.5625 C 5.273438 -12.675781 5.296875 -12.78125 5.359375 -12.875 C 5.410156 -12.96875 5.488281 -13.03125 5.59375 -13.0625 C 5.707031 -13.09375 5.816406 -13.078125 5.921875 -13.015625 C 6.347656 -12.742188 6.816406 -12.640625 7.328125 -12.703125 C 7.835938 -12.773438 8.265625 -13.003906 8.609375 -13.390625 C 8.753906 -13.546875 8.921875 -13.570312 9.109375 -13.46875 C 9.296875 -13.363281 9.359375 -13.203125 9.296875 -12.984375 C 9.296875 -12.960938 9.226562 -12.71875 9.09375 -12.25 C 8.957031 -11.789062 8.773438 -11.175781 8.546875 -10.40625 C 8.316406 -9.644531 8.054688 -8.804688 7.765625 -7.890625 C 7.742188 -7.785156 7.769531 -7.703125 7.84375 -7.640625 C 7.90625 -7.578125 7.984375 -7.554688 8.078125 -7.578125 C 9.035156 -7.929688 9.9375 -8.390625 10.78125 -8.953125 C 10.90625 -9.035156 11.039062 -9.046875 11.1875 -8.984375 C 11.332031 -8.910156 11.410156 -8.789062 11.421875 -8.625 C 11.421875 -8.46875 11.351562 -8.347656 11.21875 -8.265625 C 10.132812 -7.523438 8.957031 -6.972656 7.6875 -6.609375 C 7.46875 -6.554688 7.320312 -6.421875 7.25 -6.203125 Z M 7.25 -6.203125 "/></g></g></g><g fill="#967f71" fill-opacity="1"><g transform="translate(216.028762, 227.124491)"><g><path d="M 10.15625 -4.234375 C 10.238281 -4.160156 10.28125 -4.066406 10.28125 -3.953125 C 10.28125 -3.835938 10.242188 -3.738281 10.171875 -3.65625 C 10.128906 -3.625 9.96875 -3.476562 9.6875 -3.21875 C 9.414062 -2.957031 9.050781 -2.644531 8.59375 -2.28125 C 8.144531 -1.914062 7.625 -1.554688 7.03125 -1.203125 C 6.445312 -0.847656 5.820312 -0.550781 5.15625 -0.3125 C 4.5 -0.0820312 3.835938 0.03125 3.171875 0.03125 C 2.203125 0.0390625 1.335938 -0.238281 0.578125 -0.8125 C 0.265625 -1.039062 0.0507812 -1.3125 -0.0625 -1.625 C -0.175781 -1.9375 -0.222656 -2.257812 -0.203125 -2.59375 C -0.191406 -2.9375 -0.144531 -3.253906 -0.0625 -3.546875 C 0.0195312 -3.835938 0.0976562 -4.078125 0.171875 -4.265625 C 0.253906 -4.453125 0.300781 -4.554688 0.3125 -4.578125 C 0.375 -4.671875 0.457031 -4.734375 0.5625 -4.765625 C 0.664062 -4.796875 0.765625 -4.785156 0.859375 -4.734375 C 0.960938 -4.679688 1.03125 -4.601562 1.0625 -4.5 C 1.101562 -4.394531 1.097656 -4.296875 1.046875 -4.203125 C 1.046875 -4.191406 1.015625 -4.117188 0.953125 -3.984375 C 0.890625 -3.847656 0.820312 -3.671875 0.75 -3.453125 C 0.6875 -3.234375 0.640625 -3 0.609375 -2.75 C 0.585938 -2.5 0.609375 -2.257812 0.671875 -2.03125 C 0.734375 -1.800781 0.863281 -1.613281 1.0625 -1.46875 C 1.539062 -1.113281 2.050781 -0.898438 2.59375 -0.828125 C 3.132812 -0.753906 3.675781 -0.78125 4.21875 -0.90625 C 4.757812 -1.039062 5.289062 -1.234375 5.8125 -1.484375 C 6.332031 -1.742188 6.816406 -2.03125 7.265625 -2.34375 C 7.722656 -2.65625 8.125 -2.953125 8.46875 -3.234375 C 8.8125 -3.515625 9.078125 -3.75 9.265625 -3.9375 C 9.460938 -4.125 9.566406 -4.222656 9.578125 -4.234375 C 9.660156 -4.316406 9.753906 -4.359375 9.859375 -4.359375 C 9.972656 -4.359375 10.070312 -4.316406 10.15625 -4.234375 Z M 0.140625 -5.46875 C -0.0664062 -5.46875 -0.195312 -5.570312 -0.25 -5.78125 C -0.300781 -5.988281 -0.234375 -6.144531 -0.046875 -6.25 C 0.242188 -6.394531 0.503906 -6.585938 0.734375 -6.828125 C 0.816406 -6.910156 0.910156 -6.953125 1.015625 -6.953125 C 1.128906 -6.953125 1.226562 -6.914062 1.3125 -6.84375 C 1.394531 -6.757812 1.4375 -6.660156 1.4375 -6.546875 C 1.445312 -6.441406 1.410156 -6.347656 1.328125 -6.265625 C 1.035156 -5.960938 0.707031 -5.71875 0.34375 -5.53125 C 0.28125 -5.488281 0.210938 -5.46875 0.140625 -5.46875 Z M 0.140625 -5.46875 "/></g></g></g><g fill="#967f71" fill-opacity="1"><g transform="translate(225.64894, 227.124491)"><g><path d="M 13.703125 -3.90625 C 13.785156 -3.832031 13.828125 -3.738281 13.828125 -3.625 C 13.835938 -3.507812 13.800781 -3.410156 13.71875 -3.328125 C 13.695312 -3.296875 13.582031 -3.175781 13.375 -2.96875 C 13.164062 -2.769531 12.878906 -2.523438 12.515625 -2.234375 C 12.160156 -1.941406 11.75 -1.648438 11.28125 -1.359375 C 10.8125 -1.078125 10.304688 -0.835938 9.765625 -0.640625 C 9.222656 -0.441406 8.660156 -0.328125 8.078125 -0.296875 C 7.492188 -0.265625 6.910156 -0.367188 6.328125 -0.609375 C 5.515625 -1.015625 4.882812 -1.613281 4.4375 -2.40625 C 4.375 -2.488281 4.285156 -2.617188 4.171875 -2.796875 C 4.054688 -2.984375 3.898438 -3.070312 3.703125 -3.0625 C 3.609375 -3.0625 3.46875 -3.03125 3.28125 -2.96875 C 3.101562 -2.914062 2.867188 -2.800781 2.578125 -2.625 C 2.285156 -2.445312 1.941406 -2.175781 1.546875 -1.8125 C 1.148438 -1.445312 0.6875 -0.957031 0.15625 -0.34375 C 0.0195312 -0.1875 -0.144531 -0.15625 -0.34375 -0.25 C -0.53125 -0.34375 -0.597656 -0.492188 -0.546875 -0.703125 L 0.234375 -4.15625 C 0.253906 -4.257812 0.3125 -4.34375 0.40625 -4.40625 C 0.507812 -4.46875 0.613281 -4.484375 0.71875 -4.453125 C 0.832031 -4.429688 0.914062 -4.367188 0.96875 -4.265625 C 1.03125 -4.171875 1.050781 -4.070312 1.03125 -3.96875 L 0.671875 -2.40625 C 0.660156 -2.351562 0.679688 -2.3125 0.734375 -2.28125 C 0.785156 -2.257812 0.832031 -2.269531 0.875 -2.3125 C 2.039062 -3.414062 3.019531 -3.941406 3.8125 -3.890625 C 4.144531 -3.867188 4.425781 -3.734375 4.65625 -3.484375 C 4.832031 -3.296875 4.988281 -3.09375 5.125 -2.875 C 5.476562 -2.21875 5.976562 -1.71875 6.625 -1.375 C 7.125 -1.164062 7.628906 -1.082031 8.140625 -1.125 C 8.660156 -1.164062 9.160156 -1.28125 9.640625 -1.46875 C 10.117188 -1.65625 10.566406 -1.878906 10.984375 -2.140625 C 11.398438 -2.410156 11.765625 -2.675781 12.078125 -2.9375 C 12.398438 -3.207031 12.648438 -3.429688 12.828125 -3.609375 C 13.015625 -3.785156 13.113281 -3.878906 13.125 -3.890625 C 13.195312 -3.972656 13.289062 -4.015625 13.40625 -4.015625 C 13.519531 -4.015625 13.617188 -3.976562 13.703125 -3.90625 Z M 13.703125 -3.90625 "/></g></g></g><g fill="#967f71" fill-opacity="1"><g transform="translate(238.700411, 227.124491)"><g><path d="M 13.265625 -3.78125 C 13.347656 -3.695312 13.382812 -3.597656 13.375 -3.484375 C 13.375 -3.378906 13.328125 -3.285156 13.234375 -3.203125 C 13.203125 -3.171875 13.035156 -3.035156 12.734375 -2.796875 C 12.429688 -2.566406 12.015625 -2.285156 11.484375 -1.953125 C 10.960938 -1.628906 10.332031 -1.304688 9.59375 -0.984375 C 8.851562 -0.660156 8.019531 -0.390625 7.09375 -0.171875 C 6.175781 0.0351562 5.179688 0.140625 4.109375 0.140625 C 3.597656 0.140625 3.066406 0.109375 2.515625 0.046875 C 2.523438 0.140625 2.515625 0.222656 2.484375 0.296875 L 2.203125 0.796875 C 2.429688 0.835938 2.675781 0.914062 2.9375 1.03125 C 3.195312 1.15625 3.40625 1.332031 3.5625 1.5625 C 3.644531 1.695312 3.707031 1.875 3.75 2.09375 C 3.800781 2.320312 3.765625 2.597656 3.640625 2.921875 C 3.492188 3.285156 3.242188 3.535156 2.890625 3.671875 C 2.546875 3.804688 2.179688 3.875 1.796875 3.875 C 1.566406 3.875 1.335938 3.851562 1.109375 3.8125 C 0.878906 3.78125 0.675781 3.738281 0.5 3.6875 C 0.382812 3.65625 0.300781 3.585938 0.25 3.484375 C 0.195312 3.390625 0.1875 3.289062 0.21875 3.1875 C 0.25 3.070312 0.3125 2.984375 0.40625 2.921875 C 0.5 2.867188 0.601562 2.859375 0.71875 2.890625 C 0.914062 2.953125 1.164062 3 1.46875 3.03125 C 1.78125 3.0625 2.070312 3.050781 2.34375 3 C 2.613281 2.945312 2.789062 2.820312 2.875 2.625 C 2.945312 2.425781 2.96875 2.28125 2.9375 2.1875 C 2.914062 2.101562 2.894531 2.046875 2.875 2.015625 C 2.800781 1.898438 2.675781 1.804688 2.5 1.734375 C 2.332031 1.671875 2.160156 1.617188 1.984375 1.578125 C 1.804688 1.546875 1.660156 1.53125 1.546875 1.53125 C 1.398438 1.53125 1.285156 1.460938 1.203125 1.328125 C 1.128906 1.191406 1.128906 1.054688 1.203125 0.921875 L 1.75 -0.0625 C 1.726562 -0.0703125 1.710938 -0.078125 1.703125 -0.078125 C 1.691406 -0.078125 1.679688 -0.078125 1.671875 -0.078125 C 1.003906 -0.203125 0.507812 -0.382812 0.1875 -0.625 C -0.132812 -0.863281 -0.347656 -1.113281 -0.453125 -1.375 C -0.566406 -1.632812 -0.625 -1.863281 -0.625 -2.0625 C -0.625 -2.488281 -0.507812 -2.90625 -0.28125 -3.3125 C -0.0507812 -3.726562 0.238281 -4.109375 0.59375 -4.453125 C 0.957031 -4.804688 1.335938 -5.101562 1.734375 -5.34375 C 2.140625 -5.582031 2.515625 -5.734375 2.859375 -5.796875 C 3.585938 -5.941406 4.160156 -5.832031 4.578125 -5.46875 C 4.796875 -5.289062 4.945312 -5.085938 5.03125 -4.859375 C 5.125 -4.628906 5.175781 -4.425781 5.1875 -4.25 C 5.207031 -4.070312 5.21875 -3.976562 5.21875 -3.96875 C 5.21875 -3.851562 5.171875 -3.757812 5.078125 -3.6875 C 4.992188 -3.613281 4.898438 -3.578125 4.796875 -3.578125 C 4.679688 -3.578125 4.582031 -3.617188 4.5 -3.703125 C 4.425781 -3.785156 4.390625 -3.878906 4.390625 -3.984375 C 4.390625 -3.992188 4.382812 -4.050781 4.375 -4.15625 C 4.375 -4.257812 4.347656 -4.375 4.296875 -4.5 C 4.242188 -4.632812 4.160156 -4.753906 4.046875 -4.859375 C 3.828125 -5.046875 3.484375 -5.09375 3.015625 -5 C 2.722656 -4.945312 2.414062 -4.816406 2.09375 -4.609375 C 1.769531 -4.410156 1.460938 -4.164062 1.171875 -3.875 C 0.890625 -3.582031 0.65625 -3.273438 0.46875 -2.953125 C 0.28125 -2.640625 0.1875 -2.347656 0.1875 -2.078125 C 0.195312 -1.472656 0.738281 -1.078125 1.8125 -0.890625 C 2.875 -0.703125 3.875 -0.640625 4.8125 -0.703125 C 5.75 -0.765625 6.617188 -0.90625 7.421875 -1.125 C 8.234375 -1.351562 8.957031 -1.613281 9.59375 -1.90625 C 10.238281 -2.207031 10.785156 -2.503906 11.234375 -2.796875 C 11.691406 -3.085938 12.046875 -3.328125 12.296875 -3.515625 C 12.546875 -3.710938 12.671875 -3.8125 12.671875 -3.8125 C 12.753906 -3.894531 12.851562 -3.929688 12.96875 -3.921875 C 13.09375 -3.921875 13.191406 -3.875 13.265625 -3.78125 Z M 13.265625 -3.78125 "/></g></g></g><g fill="#967f71" fill-opacity="1"><g transform="translate(251.281838, 227.124491)"><g><path d="M 13.15625 -4.03125 C 13.226562 -3.945312 13.257812 -3.847656 13.25 -3.734375 C 13.238281 -3.617188 13.1875 -3.523438 13.09375 -3.453125 C 13.039062 -3.421875 12.847656 -3.28125 12.515625 -3.03125 C 12.179688 -2.789062 11.734375 -2.5 11.171875 -2.15625 C 10.609375 -1.8125 9.957031 -1.472656 9.21875 -1.140625 C 8.476562 -0.804688 7.679688 -0.53125 6.828125 -0.3125 C 5.984375 -0.09375 5.113281 0.015625 4.21875 0.015625 C 3.15625 0.0234375 2.128906 -0.164062 1.140625 -0.5625 C 0.597656 -0.78125 0.21875 -1.035156 0 -1.328125 C -0.21875 -1.617188 -0.34375 -1.90625 -0.375 -2.1875 C -0.40625 -2.476562 -0.398438 -2.722656 -0.359375 -2.921875 C -0.265625 -3.304688 -0.0820312 -3.675781 0.1875 -4.03125 C 0.457031 -4.394531 0.773438 -4.71875 1.140625 -5 C 1.503906 -5.289062 1.878906 -5.515625 2.265625 -5.671875 C 2.648438 -5.828125 3 -5.894531 3.3125 -5.875 C 3.59375 -5.875 3.832031 -5.773438 4.03125 -5.578125 C 4.238281 -5.378906 4.351562 -5.132812 4.375 -4.84375 C 4.382812 -4.675781 4.34375 -4.46875 4.25 -4.21875 C 4.15625 -3.976562 3.914062 -3.734375 3.53125 -3.484375 C 2.632812 -2.929688 1.660156 -2.6875 0.609375 -2.75 C 0.554688 -2.757812 0.507812 -2.75 0.46875 -2.71875 C 0.425781 -2.6875 0.410156 -2.640625 0.421875 -2.578125 C 0.410156 -2.484375 0.421875 -2.363281 0.453125 -2.21875 C 0.484375 -2.070312 0.570312 -1.921875 0.71875 -1.765625 C 0.863281 -1.609375 1.109375 -1.460938 1.453125 -1.328125 C 2.160156 -1.023438 2.890625 -0.851562 3.640625 -0.8125 C 4.390625 -0.769531 5.125 -0.816406 5.84375 -0.953125 C 6.5625 -1.085938 7.253906 -1.273438 7.921875 -1.515625 C 8.585938 -1.765625 9.195312 -2.035156 9.75 -2.328125 C 10.3125 -2.628906 10.800781 -2.910156 11.21875 -3.171875 C 11.632812 -3.429688 11.960938 -3.648438 12.203125 -3.828125 C 12.441406 -4.003906 12.5625 -4.09375 12.5625 -4.09375 C 12.65625 -4.164062 12.757812 -4.195312 12.875 -4.1875 C 12.988281 -4.175781 13.082031 -4.125 13.15625 -4.03125 Z M 0.96875 -3.703125 C 0.851562 -3.546875 0.863281 -3.457031 1 -3.4375 C 1.144531 -3.425781 1.347656 -3.457031 1.609375 -3.53125 C 1.867188 -3.613281 2.140625 -3.710938 2.421875 -3.828125 C 2.703125 -3.953125 2.925781 -4.066406 3.09375 -4.171875 C 3.414062 -4.390625 3.566406 -4.585938 3.546875 -4.765625 C 3.535156 -4.878906 3.503906 -4.953125 3.453125 -4.984375 C 3.410156 -5.023438 3.347656 -5.050781 3.265625 -5.0625 C 2.929688 -5.082031 2.539062 -4.960938 2.09375 -4.703125 C 1.65625 -4.453125 1.28125 -4.117188 0.96875 -3.703125 Z M 0.96875 -3.703125 "/></g></g></g><g fill="#967f71" fill-opacity="1"><g transform="translate(263.831932, 227.124491)"><g><path d="M 13.53125 -4.125 C 13.601562 -4.039062 13.640625 -3.945312 13.640625 -3.84375 C 13.640625 -3.726562 13.597656 -3.628906 13.515625 -3.546875 C 12.960938 -3.015625 12.351562 -2.554688 11.6875 -2.171875 C 11.019531 -1.785156 10.328125 -1.46875 9.609375 -1.21875 C 8.898438 -0.96875 8.207031 -0.78125 7.53125 -0.65625 C 6.851562 -0.539062 6.238281 -0.484375 5.6875 -0.484375 C 5.09375 -0.453125 4.519531 -0.5625 3.96875 -0.8125 C 3.59375 -1.03125 3.335938 -1.269531 3.203125 -1.53125 C 3.078125 -1.789062 3.023438 -2.0625 3.046875 -2.34375 C 3.066406 -2.625 3.125 -2.882812 3.21875 -3.125 C 3.320312 -3.375 3.421875 -3.585938 3.515625 -3.765625 C 3.535156 -3.804688 3.523438 -3.835938 3.484375 -3.859375 C 3.441406 -3.878906 3.367188 -3.863281 3.265625 -3.8125 C 2.679688 -3.5 2.0625 -3.359375 1.40625 -3.390625 C 1.113281 -3.378906 0.828125 -3.4375 0.546875 -3.5625 C 0.441406 -3.53125 0.335938 -3.539062 0.234375 -3.59375 C 0.0664062 -3.675781 -0.00390625 -3.8125 0.015625 -4 C -0.140625 -4.1875 -0.25 -4.398438 -0.3125 -4.640625 C -0.4375 -5.066406 -0.425781 -5.488281 -0.28125 -5.90625 C -0.132812 -6.320312 0.117188 -6.664062 0.484375 -6.9375 C 0.921875 -7.195312 1.265625 -7.207031 1.515625 -6.96875 C 1.546875 -6.9375 1.582031 -6.878906 1.625 -6.796875 C 1.675781 -6.722656 1.707031 -6.601562 1.71875 -6.4375 C 1.726562 -6.269531 1.691406 -6.035156 1.609375 -5.734375 C 1.535156 -5.429688 1.390625 -5.035156 1.171875 -4.546875 C 1.148438 -4.503906 1.164062 -4.4375 1.21875 -4.34375 C 1.269531 -4.25 1.332031 -4.203125 1.40625 -4.203125 C 2.007812 -4.203125 2.582031 -4.351562 3.125 -4.65625 C 3.300781 -4.75 3.488281 -4.828125 3.6875 -4.890625 C 3.882812 -4.953125 4.09375 -4.898438 4.3125 -4.734375 C 4.53125 -4.566406 4.601562 -4.359375 4.53125 -4.109375 C 4.457031 -3.867188 4.363281 -3.632812 4.25 -3.40625 C 4.007812 -2.914062 3.882812 -2.53125 3.875 -2.25 C 3.863281 -1.96875 4.035156 -1.722656 4.390625 -1.515625 C 4.585938 -1.398438 4.921875 -1.328125 5.390625 -1.296875 C 5.867188 -1.273438 6.425781 -1.3125 7.0625 -1.40625 C 7.695312 -1.507812 8.363281 -1.671875 9.0625 -1.890625 C 9.757812 -2.117188 10.441406 -2.414062 11.109375 -2.78125 C 11.773438 -3.15625 12.378906 -3.609375 12.921875 -4.140625 C 13.015625 -4.210938 13.117188 -4.25 13.234375 -4.25 C 13.347656 -4.25 13.445312 -4.207031 13.53125 -4.125 Z M 0.453125 -4.984375 C 0.640625 -5.378906 0.785156 -5.789062 0.890625 -6.21875 C 0.503906 -5.882812 0.359375 -5.472656 0.453125 -4.984375 Z M 0.453125 -4.984375 "/></g></g></g></svg>